<?xml version="1.0" encoding="UTF-8"?>
<!DOCTYPE svg PUBLIC "-//W3C//DTD SVG 1.1//EN" "http://www.w3.org/Graphics/SVG/1.1/DTD/svg11.dtd">
<!-- Creator: CorelDRAW 2020 (64-Bit) -->
<svg xmlns="http://www.w3.org/2000/svg" xml:space="preserve" width="84mm" height="48mm" version="1.1" style="shape-rendering:geometricPrecision; text-rendering:geometricPrecision; image-rendering:optimizeQuality; fill-rule:evenodd; clip-rule:evenodd"
viewBox="0 0 8400 4800"
 xmlns:xlink="http://www.w3.org/1999/xlink"
 xmlns:xodm="http://www.corel.com/coreldraw/odm/2003">
 <defs>
  <style type="text/css">
   <![CDATA[
    .fil3 {fill:#FEFEFE}
    .fil4 {fill:#373D6C}
    .fil2 {fill:#151E70}
    .fil0 {fill:#19329E}
    .fil1 {fill:#FEFEFE;fill-rule:nonzero}
   ]]>
  </style>
 </defs>
 <g id="Capa_x0020_1">
  <metadata id="CorelCorpID_0Corel-Layer"/>
  <polygon class="fil0" points="4961.58,245.13 8206.84,845.29 8206.84,3676.7 4961.58,4563.94 177.29,3187.19 177.29,1362.62 "/>
  <path class="fil1" d="M423.75 2685.72c189.24,48.81 378.92,97.3 568.6,145.78 0,-67.15 0,-134.64 0,-201.8 -118.01,-22.27 -236.03,-44.22 -354.04,-66.5 0,-177.55 0,-355.11 0,-533.31 0,-177.56 0,-355.44 0,-533 -71.67,15.73 -143.34,31.78 -214.56,47.5 0,190.33 0,380.66 0,570.67 0,190.33 0,380.66 0,570.66zm672.02 172.32c195.69,50.12 391.38,100.24 587.07,150.36 0,-83.21 0,-166.09 0,-248.97 -124.03,-23.26 -248.05,-46.52 -371.64,-69.78 0,-79.93 0,-159.86 0,-239.8 0,-79.92 0,-160.51 0,-240.77 98.27,4.25 196.55,8.18 295.25,12.45 0,-80.92 0,-162.49 0,-243.73 -98.7,2.95 -196.98,5.24 -295.25,7.86 0,-68.8 0,-137.59 0,-206.71 0,-68.8 0,-137.59 0,-206.71 123.59,-19 247.61,-37.67 371.64,-56.67 0,-82.88 0,-165.77 0,-248.65 -195.69,42.92 -391.38,86.16 -587.07,129.07 0,243.73 0,487.46 0,731.19 0,243.73 0,487.45 0,730.86zm1015.34 287.29c211.24,55.55 320.57,-107.12 320.57,-442.9 0,-114.33 0,-228.66 0,-342.99 0,-114.33 0,-228.99 0,-343.64 -103.85,1.31 -207.27,2.95 -310.7,4.26 0,93.03 0,185.74 0,278.78 35.62,1.96 71.24,3.93 107.29,5.9 0,130.38 0,260.76 0,391.46 0,143.16 -42.81,185.89 -111.14,172.64 -68.56,-13.28 -111.58,-70.1 -111.58,-205.72 0,-172.64 0,-345.61 0,-518.25 0,-172.64 0,-345.61 0,-518.58 0,-135.29 42.86,-193.73 111.58,-204.74 68.18,-10.93 111.14,36.69 111.14,179.84 0,63.88 0,127.44 0,191.32 67.81,-4.26 135.61,-8.85 203.41,-13.44 0,-59.95 0,-119.89 0,-179.84 0,-335.78 -109.08,-502.99 -320.13,-455.03 -211.22,48.01 -321.42,237.18 -321.42,524.15 0,156.91 0,314.16 0,471.07 0,156.92 0,314.16 0,471.08 0,286.65 109.97,479.14 320.98,534.63zm770.31 202.45c211.23,55.55 326.58,-139.55 326.58,-534.3 0,-215.88 -0.22,-432.42 0,-648.63 0.21,-215.88 0.43,-432.42 0.43,-648.63 0,-395.07 -115.02,-594.58 -326.15,-546.75 -211.13,47.82 -327.01,271.57 -327.01,616.85 0,189.02 0,378.04 0,567.06 0,188.7 0,378.04 0,566.74 0,344.95 115.14,572.17 326.15,627.66zm0 -329.88c-68.63,-13.46 -111.57,-82.88 -111.57,-244.38 0,-205.4 -0.21,-410.81 0,-616.53 0.21,-205.4 0.43,-410.8 0.43,-616.53 0,-161.5 42.86,-229.44 111.58,-240.45 68.17,-10.93 111.57,46.52 111.57,215.56 0,215.55 -0.22,430.45 -0.43,645.68 -0.21,214.89 0,430.12 0,645.02 0,169.04 -43.33,225.01 -111.58,211.63zm471.2 418c189.68,48.49 379.36,96.97 569.47,145.79 0,-133.99 0,-267.65 0,-401.31 -118.01,-22.27 -236.03,-44.22 -354.04,-66.5 0,-377.05 0.22,-754.11 0.43,-1131.17 0.21,-377.05 0,-754.12 0,-1131.17 -72.1,15.72 -143.76,31.78 -215.43,47.17 0,422.92 -0.22,845.84 -0.43,1268.76 -0.21,422.91 0,845.85 0,1268.43zm623.97 159.54c66.52,17.04 133.04,34.07 199.54,51.11 12.89,-188.04 25.76,-377.06 39.06,-566.73 81.53,13.1 163.07,26.53 244.61,39.64 0,-2.96 0,-5.58 0,-8.85 12.88,205.4 25.75,411.78 39.05,618.49 71.67,18.34 143.34,36.69 215.43,55.04 -37.34,-537.26 -75.11,-1068.94 -112.01,-1594.39 -36.47,-519.55 -73.8,-1033.22 -110.72,-1541.64 -97.41,21.62 -194.39,42.91 -291.38,64.2 -37.34,495.32 -75.09,985.07 -112.43,1468.27 -36.9,477.63 -74.25,949.36 -111.15,1414.86zm263.92 -913.32c15.45,-242.75 31.6,-487.13 47.21,-732.17 15.7,-246.34 31.32,-494.33 47.2,-743.3 1.29,-0.33 2.57,-0.66 3.86,-0.66 15.88,246.02 32.02,493.68 47.63,741.99 15.7,249.62 31.77,500.9 48.07,753.14 -64.8,-6.55 -129.6,-12.78 -193.97,-19z"/>
  <path class="fil1" d="M542.67 2894.29c0,-2.79 0.91,-4.08 3.43,-3.41 19.78,5.21 39.54,10.64 59.65,15.99 2.63,0.69 3.44,-0.47 3.44,-3.27 0,-15.67 0,-31.51 0,-47.03 0,-2.95 -0.9,-4.6 -3.44,-5.28 -60.12,-15.92 -119.7,-31.72 -179.39,-47.49 -2.54,-0.67 -3,0.46 -3,3.41 0,15.37 0,30.89 0,46.41 0,2.8 0.48,4.44 3,5.12 19.79,5.36 39.43,10.81 59.66,16.15 2.07,0.55 3.43,2.32 3.43,5.12 0,40.05 0,80.09 0,120.14 0,40.21 0,80.25 0,120.3 0,2.79 1.26,4.69 3.86,5.43 14.99,4.23 30.06,8.52 45.49,13.04 2.59,0.76 3.87,-0.31 3.87,-3.1 0,-40.37 0,-80.56 0,-120.77 0,-40.35 0,-80.56 0,-120.76zm88.41 -31.98c0,49.83 0,99.65 0,149.33 0,49.82 0,99.65 0,149.47 0,2.8 1.26,4.7 3.86,5.43 14.99,4.23 30.07,8.52 45.49,13.04 2.59,0.75 3.87,-0.3 3.87,-3.26 0,-17.54 0,-35.07 0,-52.62 0,-17.53 0,-35.23 0,-52.77 0,-2.79 1.27,-3.86 3.43,-3.26 14.57,4.05 30.19,7.54 44.64,12.42 11.38,3.84 16.91,15.58 21.02,32.6 6.61,27.37 14.41,54.65 22.32,82.1 0.67,2.36 1.76,5.13 3.43,8.55 1.75,3.56 3.47,5.54 4.73,5.9 16.77,4.75 33.43,9.66 50.64,14.58 1.25,0.36 2.14,0 2.14,-1.55 0,-0.62 -0.91,-2.16 -2.14,-4.35 -1.32,-2.31 -1.97,-4.52 -2.57,-6.98 -6.67,-26.56 -13.54,-52.95 -20.18,-79.16 -1.93,-7.62 -4.3,-15.06 -6.44,-22.2 -2.15,-7.14 -6.65,-15.79 -12.01,-26.07 -0.23,-0.44 -0.44,-1.25 -0.44,-1.87 0,-0.77 0.51,-1.53 0.87,-1.86 0.49,-0.44 0.43,-0.93 0.85,-1.09 6.45,-2.33 11.39,-5.2 15.03,-9 3.64,-3.8 7.4,-8.11 10.3,-13.19 5.69,-9.98 7.72,-27.94 7.72,-53.55 0,-3.27 0.05,-6.53 0,-9.94 -0.37,-27.62 -6.65,-49.78 -17.6,-66.43 -6.2,-9.42 -12.51,-16.74 -19.3,-21.73 -6.51,-4.78 -13.33,-8.23 -19.75,-9.94 -45.49,-12.09 -90.95,-24.11 -136.05,-36.01 -2.53,-0.67 -3.86,0.47 -3.86,3.41zm128.32 85.84c6.06,1.82 9.81,8.71 13.74,19.25 1.21,3.27 2.16,6.52 2.57,9.93 0.43,3.57 0.43,7.14 0.43,11.33 0,7.92 -0.88,15.22 -2.57,21.27 -1.73,6.2 -4.32,10.7 -7.73,13.04 -4.3,2.93 -8.17,4.05 -11.59,3.1 -22.31,-6.19 -44.26,-12.19 -66.1,-18.16 -2.61,-0.7 -3.85,-2.48 -3.85,-5.43 0,-23.28 0,-46.72 0,-70.16 0,-2.95 1.26,-4 3.43,-3.41 23.57,6.39 48.06,12.2 71.67,19.24zm96.99 279.4c0,1.71 0.88,2.78 2.58,3.26 15.88,4.48 31.78,9.13 47.64,13.66 2.59,0.74 3.97,-0.31 4.72,-2.95 6.54,-23.11 12.88,-46.26 19.31,-69.39 0.85,-3.1 2.58,-4.16 4.72,-3.57 28.32,7.93 57.12,15.95 85.85,24.06 2.59,0.73 4.03,2.66 4.71,5.74 6.17,27.35 12.75,54.66 19.32,81.96 0.71,2.96 2.55,4.69 5.15,5.44 15.84,4.52 31.74,9.18 47.64,13.66 1.69,0.47 2.57,-0.16 2.57,-1.86 -12.44,-51.85 -24.88,-103.39 -36.91,-154.92 -11.99,-51.38 -24.38,-102.92 -36.48,-153.98 -2.91,-12.26 -8.65,-20.92 -16.3,-25.92 -7.79,-5.08 -18.83,-9.55 -32.62,-13.19 -13.24,-3.49 -24.06,-4.81 -31.77,-3.88 -7.73,0.93 -13.31,6.52 -16.31,17.23 -12.44,44.23 -25.34,88.32 -37.34,132.4 -12.02,44.23 -24.46,88.16 -36.48,132.25zm151.94 -104.16c0,0.63 0,0.94 0,1.25 0,0.31 0.43,0.77 0.43,1.08 0,2.02 -1.3,2.8 -3,2.33 -18.47,-5.11 -36.51,-10.07 -54.52,-15.05 -2.16,-0.6 -3,-2.02 -3,-3.88 0,-0.47 0.19,-0.68 0.43,-0.94 0.25,-0.26 0,-0.62 0,-1.24 3.86,-15.68 8.57,-31.05 12.45,-46.72 3.83,-15.52 8.34,-31.07 12.87,-46.56 1.46,-5 3.01,-7.14 4.3,-6.84 1.28,0.31 2.17,1.09 2.57,2.18 0.45,1.24 0.86,3.42 1.71,6.99 4.29,17.84 8.58,35.7 12.89,53.7 4.26,17.85 8.58,35.86 12.87,53.7zm118.45 184.25c41.62,11.95 83.33,23.83 124.88,35.86 14.23,4.11 25.76,4.49 36.06,1.08 9.86,-3.26 18.2,-8.8 24.89,-16.91 6.61,-8.02 11.19,-17.86 14.17,-29.03 3.02,-11.33 4.72,-22.82 4.72,-34.62 0,-18 0,-36.16 0,-54.01 0,-18.16 0,-36.17 0,-54.33 0,-13.82 -1.73,-27.94 -4.72,-42.22 -3.01,-14.43 -7.58,-27.67 -14.17,-39.89 -6.7,-12.45 -15.11,-23.1 -25.31,-32.44 -9.97,-9.12 -21.91,-15.66 -36.06,-19.4 -41.63,-11.01 -83.3,-22 -124.46,-32.91 -2.17,-0.57 -3.44,0.62 -3.44,3.57 0,51.69 0,103.38 0,154.91 0,51.69 0,103.38 0,155.06 0,2.79 1.29,4.66 3.44,5.28zm49.35 -243.23c0,-2.95 1.25,-4.11 3.87,-3.41 20.54,5.5 41.25,10.96 62.23,16.61 4.33,1.17 8.64,3.7 12.87,7.29 4.34,3.7 8.13,7.93 11.59,13.04 3.39,4.97 6.47,10.4 8.59,16.14 2.16,5.89 3,11.49 3,16.92 0,19.87 0,39.89 0,59.76 0,19.87 0,39.89 0,59.76 0,5.12 -0.64,9.81 -2.58,14.28 -1.9,4.38 -4.51,8.15 -7.72,11.33 -3.21,3.18 -6.82,5.49 -10.73,6.83 -4.23,1.45 -8.17,1.56 -12.02,0.47 -21.88,-6.2 -43.72,-12.5 -65.23,-18.47 -2.52,-0.7 -3.87,-2.49 -3.87,-5.44 0,-32.59 0,-65.19 0,-97.63 0,-32.6 0,-65.04 0,-97.48zm183.27 -9.46c0,52.46 0,104.92 0,157.39 0,52.62 0,105.08 0,157.7 0,2.95 1.26,4.86 3.85,5.59 15,4.23 30.07,8.52 45.5,13.04 2.58,0.75 3.86,-0.47 3.86,-3.42 0,-52.77 0,-105.55 0,-158.17 0,-52.62 0,-105.39 0,-158.17 0,-3.1 -1.34,-4.91 -3.86,-5.59 -15.49,-4.13 -30.45,-8.11 -45.5,-12.1 -2.53,-0.67 -3.85,0.47 -3.85,3.73zm83.25 338.84c0,3.11 1.26,5.01 3.87,5.74 14.98,4.23 30.06,8.53 45.48,13.04 2.6,0.76 3.87,-0.46 3.87,-3.42 0,-42.68 0,-85.36 0,-128.21 0,-42.53 0,-85.21 0,-128.05 0,-2.64 0.86,-3.7 2.58,-3.26 1.27,0.32 2.45,2.03 3,4.81 8.02,40.21 16.34,80.25 24.47,120.3 8.16,40.19 16.39,80.4 24.88,120.75 0.95,4.5 2.63,9.16 4.73,13.66 2.18,4.66 4.72,9.01 7.72,13.04 3,4.04 6.02,7.62 9.45,10.56 3.42,2.95 6.39,4.87 9.44,5.74 11.11,3.16 22.37,6.29 33.48,9.47 5.19,1.48 9.74,1.28 14.15,-0.62 4.59,-1.97 8.82,-5.06 12.02,-9.31 3.23,-4.29 5.56,-9.32 7.73,-14.9 2.11,-5.43 3,-11.33 3,-17.54 0,-45.64 0,-91.12 0,-136.6 0,-45.63 0,-91.11 0,-136.59 0,-3.26 -1.32,-5.09 -3.86,-5.74 -15.48,-4 -30.53,-8 -45.49,-11.96 -2.64,-0.69 -3.87,0.47 -3.87,3.57 0,42.84 0,85.68 0,128.53 0,42.84 0,85.68 0,128.52 0,3.1 -0.85,4.34 -2.57,3.88 -1.71,-0.47 -2.75,-2.32 -3.43,-5.59 -8.33,-40.04 -16.31,-80.25 -24.47,-120.3 -8.15,-40.05 -16.12,-79.95 -24.46,-119.82 -2.37,-11.35 -7.36,-20.95 -14.17,-28.88 -6.91,-8.04 -17.97,-14.04 -33.47,-18.16 -10.24,-2.71 -18.9,-3.66 -26.18,-2.94 -6.89,0.67 -12.3,3.31 -16.31,7.45 -4.13,4.24 -7.29,10.4 -9.01,18.47 -1.7,8.06 -2.58,17.84 -2.58,29.64 0,42.53 0,85.07 0,127.44 0,42.53 0,84.9 0,127.28zm380.26 -221.19c-25.32,-6.67 -50.64,-13.37 -75.54,-19.87 -8.99,-2.34 -17.96,-1.64 -25.75,2.02 -8.07,3.78 -15.51,9.3 -21.46,16.92 -6.05,7.74 -10.53,16.79 -14.16,26.85 -3.65,10.11 -5.58,20.33 -5.58,30.42 0,21.89 0,43.78 0,65.66 0,21.89 0,43.78 0,65.66 0,11.8 1.57,24.38 4.72,37.56 3.27,13.67 8.03,26.42 14.16,38.35 6.31,12.28 13.81,22.79 22.75,32.13 9.07,9.44 19.33,15.8 31.32,19.24 21.05,6.03 42.05,12.14 63.52,18.32 14.13,4.06 26.26,4.09 36.05,0 9.52,-3.97 17.45,-10.02 23.18,-17.85 5.86,-8 9.91,-16.92 12.45,-26.55 2.6,-9.77 3.86,-18.16 3.86,-25.45 0,-17.54 0,-35.23 0,-52.78 0,-17.54 0,-35.23 0,-52.77 0,-3.1 -1.33,-5.06 -3.86,-5.74 -37.81,-10.33 -75.48,-20.72 -113.3,-31.05 -2.52,-0.68 -3.86,0.62 -3.86,3.57 0,17.08 0,34.3 0,51.22 0,3.11 1.25,5.02 3.86,5.74 19.7,5.48 39.44,11.1 59.22,16.46 2.52,0.68 3.87,2.64 3.87,5.75 0,14.59 0,29.02 0,43.45 0,2.8 -0.64,5.88 -1.72,9.16 -1.06,3.24 -2.85,6.11 -5.15,8.54 -2.42,2.55 -5.15,4.35 -8.58,5.59 -3.44,1.24 -7.7,1.03 -12.45,-0.31 -14.97,-4.24 -30.12,-8.44 -44.64,-12.57 -9.5,-2.7 -17.13,-10.26 -23.17,-22.51 -5.96,-12.12 -9.01,-26.7 -9.01,-43.62 0,-20.33 0,-40.51 0,-60.69 0,-20.18 0,-40.36 0,-60.53 0,-2.96 0.86,-5.9 2.57,-9.32 1.71,-3.41 3.82,-6.54 6.44,-9.46 2.51,-2.82 5.68,-4.91 8.59,-6.53 2.66,-1.48 5.12,-1.97 7.28,-1.39 37.32,9.98 74.75,19.95 112.02,29.96 2.63,0.7 3.44,-0.63 3.44,-3.73 0,-17.23 0,-34.46 0,-51.54 0,-3.25 -0.81,-5.03 -3.44,-5.74 -15.82,-4.26 -31.75,-8.38 -47.63,-12.57zm199.99 57.74c0,54.95 0,109.9 0,164.85 0,55.1 0,110.05 0,165 0,3.1 1.29,5.12 3.43,5.74 15.02,4.34 30.48,8.7 45.93,13.19 2.14,0.63 3.43,-0.62 3.43,-3.72 0,-55.26 0,-110.37 0,-165.62 0,-55.11 0,-110.36 0,-165.47 0,-3.26 -1.34,-5.19 -3.43,-5.74 -15.51,-4.1 -30.93,-8.19 -45.93,-12.11 -2.17,-0.57 -3.43,0.62 -3.43,3.88zm83.7 353.9c0,3.11 0.84,5 3.43,5.75 14.99,4.36 30.05,8.52 45.49,13.04 2.58,0.75 3.86,-0.47 3.86,-3.57 0,-44.24 0,-88.32 0,-132.41 0,-44.23 0,-88.32 0,-132.4 0,-2.17 0.47,-3.3 1.29,-3.11 0.46,0.11 1.43,0.31 2.14,0.63 1.08,0.48 1.53,2.5 2.15,5.58 0.66,3.28 1.21,5.29 1.29,5.9 5.92,39.58 12.04,79.17 18.03,118.75 6.01,39.73 11.84,79.32 18.45,119.2 0.67,4.05 1.93,8.21 3.43,12.89 1.49,4.63 3.45,9 6.44,13.19 3,4.18 6.87,8.08 11.16,11.49 4.71,3.72 10.27,6.42 17.59,8.54 7.68,2.21 14.21,3.01 19.32,2.02 5.18,-1.02 9.02,-3.11 12.01,-6.06 3,-2.95 5.6,-6.52 7.3,-10.86 1.72,-4.34 2.62,-9.03 3.44,-13.98 5.6,-33.7 10.73,-61.31 14.16,-83.04 3.42,-21.73 6.46,-39.58 9.01,-53.39 2.59,-14.12 4.3,-25.31 5.58,-33.84 1.28,-8.53 3.21,-16.45 4.3,-24.06 0.19,-1.39 0.44,-3.26 0.85,-5.59 0.44,-2.47 1.07,-4.96 1.28,-7.45 0.21,-2.48 0.43,-4.81 0.87,-6.99 0.43,-2.17 0.71,-3.42 0.85,-4.03 0.28,-1.26 1.06,-2.22 1.72,-3.26 0.63,-0.99 1.68,-1.18 2.58,-0.93 1.23,0.36 2.36,1.55 2.57,3.73 0.19,2.16 0,3.41 0,4.18 0,43.93 0,87.71 0,131.63 0,43.93 0,87.85 0,131.78 0,3.1 1.28,5.15 3.86,5.9 15,4.37 30.07,8.52 45.5,13.04 2.58,0.76 3.85,-0.62 3.85,-3.73 0,-48.27 0,-96.39 0,-144.5 0,-48.12 0,-96.4 0,-144.51 0,-19.72 -4.98,-34.98 -14.58,-45.64 -9.7,-10.76 -22.32,-18.01 -37.77,-22.04 -10.72,-2.8 -19.32,-4.35 -26.18,-4.5 -6.87,-0.16 -12.39,1.89 -16.74,6.21 -4.23,4.21 -7.73,11.65 -10.3,22.04 -2.57,10.4 -4.6,24.68 -6.86,42.69 -3.31,26.23 -6.86,52.31 -9.87,78.69 -2.99,26.23 -6.52,52.31 -9.45,78.54 -0.06,0.61 -0.01,2.33 -0.43,4.97 -0.42,2.63 -1.1,5.25 -1.72,7.91 -0.65,2.77 -0.9,5.28 -1.72,7.14 -0.88,2.01 -1.3,3.03 -1.71,2.96 -0.47,-0.09 -1.3,-1.56 -1.72,-3.88 -0.42,-2.33 -1.11,-5.15 -1.72,-8.08 -0.67,-3.27 -1.5,-6.2 -1.71,-9.16 -0.21,-2.94 -0.67,-5.1 -0.86,-6.52 -3.66,-27.3 -7.31,-55.1 -10.3,-82.26 -3,-27.31 -6.45,-54.8 -9.44,-82.11 -2.15,-19.71 -4.92,-35.69 -7.29,-47.5 -2.34,-11.63 -5.55,-20.97 -9.88,-27.78 -4.24,-6.68 -9.87,-11.8 -16.3,-15.06 -6.44,-3.26 -15.04,-6.35 -25.75,-9.16 -6.45,-1.68 -12.87,-2.48 -18.89,-2.33 -6.42,0.16 -11.94,1.44 -16.73,4.35 -4.66,2.83 -8.53,7.31 -11.6,13.66 -2.93,6.06 -4.28,14.43 -4.28,24.99 0,47.03 0,94.06 0,141.09 0,47.19 0,94.22 0,141.25zm303.85 -246.33c0,55.72 0,111.29 0,166.86 0,55.42 0,110.98 0,166.55 0,3.26 0.84,5.15 3.44,5.9 14.99,4.36 30.07,8.66 45.48,13.04 2.61,0.73 3.87,-0.62 3.87,-3.73 0,-18.63 0,-37.25 0,-55.88 0,-18.62 0,-37.25 0,-55.87 0,-3.11 1.27,-4.49 3.43,-3.89 21.01,5.92 42.52,11.92 63.95,17.85 13.33,3.68 24.9,4.35 34.34,1.56 9.44,-2.79 16.79,-8.53 22.74,-16.92 6.05,-8.53 10.73,-19.41 13.31,-32.91 2.55,-13.35 3.86,-28.72 3.86,-46.1 0,-16.76 -1.29,-32.6 -3.86,-47.34 -2.57,-14.74 -6.91,-28.1 -12.87,-39.74 -6.04,-11.79 -13.4,-21.7 -23.18,-30.11 -9.52,-8.19 -21.1,-14.05 -34.34,-17.54 -39.1,-10.32 -78.09,-20.7 -116.73,-30.89 -2.55,-0.66 -3.44,0.63 -3.44,4.04 0,1.71 0,3.57 0,5.12zm126.17 86.92c4.35,1.16 7.7,4.2 10.3,9.01 2.54,4.66 4.54,10.1 5.59,15.82 1.08,5.92 2.16,11.8 2.58,17.7 0.42,5.74 0.42,10.41 0.42,13.66 0,3.26 -0.01,7.77 -0.42,13.2 -0.43,5.73 -1.53,11.16 -2.58,16.29 -1.08,5.26 -3.06,9.61 -5.59,12.89 -2.61,3.39 -5.98,4.61 -10.3,3.41 -23.56,-6.55 -46.79,-12.86 -69.95,-19.24 -2.16,-0.6 -3.43,-2.64 -3.43,-5.9 0,-30.43 0,-61.01 0,-91.58 0,-3.27 1.35,-4.6 3.43,-4.04 23.24,6.26 46.42,12.5 69.95,18.78zm85.42 138.3c0,19.41 0.22,36.17 0.43,50.45 0.21,14.12 0.74,25.77 2.14,35.08 2.02,13.35 3.66,25.32 6.01,36.16 2.36,10.88 5.29,20.01 9.02,27.63 4.84,9.91 10.72,19.1 18.02,27.64 7.28,8.53 15.33,15.44 23.6,20.33 5.88,3.48 13.36,6.46 23.18,9.62 9.47,3.05 20.6,6.38 33.9,10.24 12.87,3.74 24.51,6.93 33.9,9.32 9.5,2.41 17.18,3.62 22.75,3.57 8.59,-0.09 16.25,-2.53 23.61,-6.99 7.22,-4.38 13.11,-10.14 18.03,-17.53 3.65,-5.49 6.86,-13.2 9.01,-22.98 2.13,-9.62 4.22,-20.65 6,-33.22 1.21,-8.53 1.94,-20.03 2.15,-34.45 0.21,-14.13 0.44,-31.21 0.44,-50.92 0,-0.93 0.42,-1.86 0.42,-2.94 0,-19.56 -0.21,-36.48 -0.42,-51.07 -0.2,-14.28 -0.92,-26.23 -2.15,-35.7 -1.75,-13.34 -3.88,-25.62 -6.02,-36.48 -2.13,-10.86 -5.28,-20.31 -9,-27.94 -4.85,-9.91 -10.75,-19.09 -18.03,-27.47 -7.3,-8.38 -15.09,-15.02 -23.6,-19.87 -5.64,-3.22 -13.21,-6.34 -22.75,-9.16 -9.33,-2.76 -20.58,-6.11 -33.47,-9.47 -13.28,-3.46 -24.83,-6.17 -34.34,-8.38 -9.81,-2.28 -17.18,-3.3 -23.18,-3.11 -8.17,0.27 -16.37,2.77 -23.6,7.3 -7.36,4.62 -13.2,10.43 -18.03,17.7 -3.74,5.6 -6.67,13.32 -9.01,22.81 -2.37,9.61 -4.01,20.64 -6.01,32.75 -1.42,8.68 -1.95,20.04 -2.15,34 -0.21,14.12 -0.42,30.73 -0.42,50.14 0,1.08 -0.43,2.02 -0.43,2.94zm116.73 -87.54c7.34,1.96 14.59,4.19 21.46,6.52 6.86,2.33 12.56,4.9 17.6,7.91 8.69,5.21 14.82,12.92 18.45,22.67 3.65,9.81 5.58,23.43 5.58,41.13 0,19.09 -0.22,38.34 -0.43,57.27 -0.21,19.09 0,38.34 0,57.28 0,17.7 -1.92,30.4 -5.57,38.19 -3.62,7.72 -9.86,11.93 -18.47,12.41 -5.12,0.29 -10.76,-0.24 -17.58,-1.7 -6.9,-1.48 -14.13,-3.31 -21.47,-5.44 -7.67,-2.22 -15.13,-4.39 -21.88,-6.83 -6.54,-2.36 -12.44,-5.13 -17.17,-8.07 -8.99,-5.58 -15.23,-13.16 -18.88,-22.97 -3.64,-9.75 -5.59,-23.44 -5.59,-40.82 0,-18.94 -0.21,-38.04 0,-56.81 0.21,-18.94 0.44,-38.03 0.44,-56.97 0,-17.54 1.89,-30.01 5.58,-37.87 3.58,-7.65 9.87,-11.81 18.88,-12.42 4.71,-0.32 10.75,0.12 17.17,1.39 6.88,1.36 14.2,3.07 21.88,5.13zm144.21 -17.85c0,58.21 0.21,116.42 0,174.46 -0.21,58.21 -0.43,116.42 -0.43,174.63 0,3.25 1.28,5.44 3.43,6.05 15.01,4.35 30.47,8.7 45.92,13.2 2.13,0.62 3.43,-0.78 3.43,-4.04 0,-20.65 0,-41.13 0,-61.62 0,-20.49 0,-41.13 0,-61.62 0,-3.26 1.26,-4.61 3.87,-3.88 14.55,4.08 30.37,7.34 44.63,12.41 11.21,3.99 16.5,17.28 20.6,36.95 6.62,31.71 15.22,63.31 22.75,94.83 0.62,2.62 1.29,5.75 3,9.78 1.72,4.04 3.47,6.32 4.72,6.68 16.77,4.76 33.45,9.67 50.65,14.58 1.25,0.36 2.15,-0.14 2.15,-2.01 0,-0.62 -0.9,-2.33 -2.15,-4.81 -1.31,-2.63 -1.94,-5.29 -2.58,-8.23 -6.66,-30.43 -13.84,-60.99 -20.17,-91.27 -1.81,-8.67 -4.08,-17.21 -6.44,-25.45 -2.34,-8.21 -5.96,-18.18 -11.58,-29.8 -0.37,-0.79 -0.43,-1.56 -0.43,-2.18 0,-1.09 0.06,-1.85 0.43,-2.33 0.47,-0.6 0.85,-0.93 0.85,-1.24 6.44,-3.11 11.37,-6.74 15.02,-11.33 3.64,-4.57 8.28,-9.67 11.16,-15.68 5.7,-11.85 7.72,-32.9 7.72,-62.71 0,-3.88 0.09,-7.76 0,-11.63 -0.75,-32.45 -6.73,-58.09 -17.58,-76.84 -6.31,-10.9 -12.76,-19 -19.32,-24.37 -6.73,-5.49 -13.28,-9.06 -20.17,-10.87 -45.46,-11.99 -91.02,-23.87 -136.05,-35.86 -2.17,-0.57 -3.43,0.78 -3.43,4.2zm127.89 94.37c6.17,1.88 10.24,9.8 14.16,21.89 1.22,3.73 1.94,7.61 2.15,11.48 0.21,4.04 0.85,8.39 0.85,13.2 0,9.31 -1.06,17.83 -3,24.99 -1.93,7.12 -4.18,12.46 -7.72,15.52 -4.18,3.62 -7.74,4.98 -11.16,4.03 -22.32,-6.19 -44.18,-12.14 -66.09,-18.15 -2.98,-0.82 -4.3,-2.79 -4.3,-6.22 0,-27.16 0,-54.48 0,-81.95 0,-3.26 1.25,-4.6 3.87,-3.88 23.55,6.42 47.7,11.95 71.24,19.09zm210.73 61.62c0,-3.41 1.25,-4.74 3.87,-4.03 19.69,5.33 39.5,10.54 59.65,15.99 2.16,0.59 3.43,-0.94 3.43,-4.19 0,-18.94 0,-37.88 0,-56.66 0,-3.41 -1.26,-5.48 -3.43,-6.06 -60.05,-15.87 -119.72,-31.7 -179.4,-47.33 -2.54,-0.66 -3.87,0.61 -3.87,4.03 0,18.63 0,37.41 0,56.04 0,3.26 1.25,5.34 3.87,6.05 19.7,5.34 39.52,10.52 59.66,15.99 2.16,0.58 3.43,2.63 3.43,6.05 0,48.12 -0.22,96.39 -0.43,144.51 -0.21,48.27 0,96.54 0,144.67 0,3.41 1.36,5.49 3.87,6.2 15.09,4.26 29.96,8.79 45.48,13.2 2.52,0.7 3.44,-0.93 3.44,-4.2 0,-48.42 -0.21,-96.86 0,-145.12 0.21,-48.28 0.43,-96.71 0.43,-145.14zm190.99 295.85c0,6.68 1.48,13.49 3.43,20.5 1.9,6.8 4.68,13.51 8.15,19.71 3.39,6.06 7.36,11.31 11.59,15.83 4.34,4.63 8.65,7.52 13.3,8.85 46.85,13.41 93.93,27.1 141.2,40.66 2.51,0.72 3.87,-0.77 3.87,-4.19 0,-19.24 0,-38.49 0,-57.59 0,-3.56 -1.28,-5.61 -3.87,-6.36 -40.31,-11.51 -80.7,-22.81 -121.02,-34.3 -2.15,-0.61 -3.44,-2.64 -3.44,-6.06 0,-25.14 0,-50.29 0,-75.43 0,-3.42 1.28,-4.79 3.44,-4.2 37.31,10.27 74.69,20.63 112.44,31.21 2.16,0.6 3.43,-0.78 3.43,-4.35 0,-20.02 0.43,-40.2 0.43,-60.23 0,-3.41 -1.27,-5.61 -3.43,-6.2 -37.75,-10.27 -75.14,-20.46 -112.45,-30.58 -2.16,-0.58 -3.44,-2.8 -3.44,-6.21 0,-23.59 0,-47.19 0,-70.78 0,-3.73 1.28,-5.24 3.44,-4.66 40.31,10.9 80.65,21.64 121.03,32.44 2.52,0.68 3.87,-0.78 3.87,-4.19 0,-19.24 0,-38.49 0,-57.58 0,-3.57 -1.71,-5.77 -5.15,-6.68 -41.18,-10.88 -82.46,-21.65 -123.61,-32.59 -17.21,-4.58 -30.06,-0.63 -39.06,11.64 -9,12.25 -13.73,30.11 -13.73,53.55 0,39.73 -0.22,79.47 -0.42,118.9 -0.21,39.73 0,79.32 0,118.89zm299.99 31.36c0.27,-0.64 0.38,-1.57 0.86,-2.8 0.36,-0.93 0.81,-1.48 1.29,-1.39 0.41,0.07 0.88,0.92 1.28,2.17 0.46,1.39 0.69,2.5 0.87,3.1 5.81,19.27 12.42,38.35 18.45,57.44 5.98,18.93 12.67,38.21 19.31,57.58 1.08,3.13 2.21,4.93 3.44,5.59 1.34,0.73 2.18,1.19 3.43,1.55 13.34,3.83 27.02,7.79 40.77,11.8 1.69,0.49 3.01,0.41 3.86,0.47 1.3,0.08 1.72,-1.09 1.72,-3.27 0,-0.61 -0.31,-2.49 -1.3,-5.58 -10.17,-31.84 -21.05,-63.64 -30.9,-95.15 -9.89,-31.66 -20.13,-63.18 -30.03,-94.69 -0.39,-1.24 -1.05,-2.82 -1.72,-4.81 -0.63,-1.89 -0.43,-3.1 -0.43,-3.88 0,-0.62 0.21,-1.83 0.86,-3.26 0.62,-1.36 1.37,-2.48 1.72,-3.41 9.94,-26.07 20.23,-52 30.04,-77.92 9.91,-26.22 20.81,-52.13 30.9,-78.23 1.06,-2.77 1.28,-4.35 1.28,-5.12 0,-2.02 -0.41,-3.44 -1.72,-4.2 -0.82,-0.47 -2.14,-0.93 -3.85,-1.39 -13.73,-3.73 -27.46,-7.33 -40.78,-10.87 -1.26,-0.33 -2.14,-0.31 -3.43,-0.31 -1.29,0 -2.36,1.36 -3.44,3.88 -6.64,15.49 -13.33,31.2 -19.3,46.87 -6.04,15.83 -12.73,31.33 -18.46,47.04 -0.27,0.75 -0.48,1.7 -0.86,2.64 -0.48,1.22 -0.81,1.63 -1.28,1.55 -0.41,-0.07 -0.85,-0.78 -1.3,-2.18 -0.39,-1.24 -0.58,-2.3 -0.85,-3.1 -6.59,-19.07 -13.31,-38.18 -19.32,-57.12 -6,-18.93 -12.52,-38.02 -18.45,-56.81 -0.92,-2.94 -2.12,-4.99 -3.43,-5.74 -0.83,-0.48 -2.17,-1.08 -3.43,-1.4 -13.75,-3.55 -27.07,-7.13 -40.35,-10.56 -1.73,-0.44 -2.98,-0.77 -4.29,-0.77 -1.32,0 -1.72,1.24 -1.72,3.26 0,0.77 0.71,2.6 1.72,5.74 10.14,31.17 20.15,62.56 30.04,93.76 9.84,31.04 20.57,62.55 30.9,94.06 0.4,1.24 1.06,2.61 1.72,4.34 0.63,1.68 0.86,3.11 0.86,3.88 0,0.63 -0.6,1.74 -1.29,3.42 -0.59,1.45 -1.34,2.79 -1.71,3.72 -10.34,25.77 -21.03,51.39 -30.9,77.15 -9.87,25.77 -19.84,51.43 -30.05,77.14 -0.95,2.39 -1.72,4.04 -1.72,4.66 0,2.18 0.43,3.58 1.72,4.19 1.27,0.62 2.49,1.35 4.28,1.87 13.24,3.82 26.69,7.52 40.35,11.48 1.35,0.39 2.58,0.46 3.44,0.46 1.28,0 2.45,-1.1 3.43,-3.72 5.87,-15.7 12.47,-31.04 18.45,-46.57 6.03,-15.67 12.74,-31.07 19.32,-46.56zm123.6 -225.54c0,60.85 -0.22,121.7 -0.43,182.54 -0.21,60.68 0,121.38 0,182.23 0,3.42 1.31,5.75 3.43,6.36 15.03,4.34 30.49,8.7 45.93,13.2 2.14,0.61 3.44,-0.93 3.44,-4.35 0,-20.33 0,-40.82 0,-61 0,-20.49 0,-40.82 0,-61.31 0,-3.42 1.26,-4.77 3.85,-4.04 21,5.95 42.08,11.65 63.52,17.7 13.73,3.87 25.33,4.02 34.76,0.77 9.44,-3.25 17.03,-9.66 22.75,-19.09 5.85,-9.65 10.74,-21.58 13.3,-36.32 2.57,-14.75 3.87,-31.51 3.87,-50.45 0,-18.47 -1.3,-35.54 -3.87,-51.68 -2.56,-16.14 -7.1,-30.55 -12.86,-43.15 -5.81,-12.69 -13.38,-23.42 -22.75,-32.14 -9.5,-8.81 -20.99,-14.97 -34.77,-18.62 -38.99,-10.32 -78.14,-20.6 -116.74,-30.74 -2.17,-0.56 -3.43,0.78 -3.43,4.35 0,2.02 0,3.88 0,5.74zm126.18 91.89c4.7,1.25 8.12,4.52 10.72,9.63 2.54,4.97 4.33,10.86 5.59,17.23 1.29,6.51 1.73,12.73 2.15,19.09 0.43,6.36 0.85,11.48 0.85,15.05 0,3.58 -0.43,8.39 -0.85,14.44 -0.44,6.2 -0.89,12.26 -2.15,17.85 -1.3,5.74 -3.11,10.69 -5.59,14.28 -2.66,3.86 -6.03,5.16 -10.72,3.88 -23.2,-6.32 -46.39,-12.68 -69.53,-19.09 -2.6,-0.72 -3.86,-2.95 -3.86,-6.37 0,-33.52 0,-66.89 0,-100.26 0,-3.58 1.33,-5.02 3.86,-4.35 23.22,6.16 46.35,12.43 69.53,18.62zm85.41 148.86c0,21.26 0.23,39.74 0.43,55.1 0.21,15.68 0.75,28.41 2.14,38.34 2.03,14.59 4.31,27.79 6.44,39.58 2.14,11.79 5.12,21.74 8.59,29.81 4.67,10.86 11.21,20.78 18.45,29.8 7.34,9.13 14.74,16.46 23.17,21.72 5.73,3.59 13.68,6.74 23.18,9.79 9.38,3 20.55,6.43 33.9,10.24 13.24,3.79 24.43,6.9 33.91,9.32 9.39,2.39 17.19,3.67 23.17,3.41 8.19,-0.35 15.96,-3.39 23.19,-8.39 7.34,-5.08 13.57,-11.42 18.45,-19.55 3.69,-6.15 6.43,-14.6 8.58,-25.3 2.14,-10.71 4.68,-22.96 6.44,-36.32 1.24,-9.6 1.93,-22.2 2.14,-37.72 0.21,-15.67 0.44,-34.15 0.44,-55.57 0,-1.09 0.42,-2.17 0.42,-3.26 0,-21.42 -0.21,-40.06 -0.42,-55.72 -0.21,-15.84 -0.93,-28.74 -2.15,-38.96 -1.77,-14.61 -4.28,-27.95 -6.44,-39.89 -2.11,-11.65 -4.88,-21.94 -8.58,-30.12 -4.87,-10.75 -11.18,-20.64 -18.46,-29.64 -7.29,-9 -14.78,-16.15 -23.17,-21.11 -5.77,-3.42 -13.69,-6.43 -23.19,-9.32 -9.37,-2.85 -20.12,-6.12 -33.46,-9.62 -13.26,-3.48 -24.82,-6.2 -34.34,-8.39 -9.35,-2.14 -17.2,-3.18 -23.18,-2.79 -8.2,0.54 -15.95,3.7 -23.17,8.69 -7.36,5.1 -13.84,11.62 -18.46,19.72 -3.53,6.18 -6.48,14.74 -8.59,25.14 -2.17,10.71 -4.42,22.66 -6.43,36.01 -1.41,9.46 -1.94,21.89 -2.15,37.1 -0.21,15.52 -0.42,33.69 -0.42,54.79 0,1.09 -0.43,2.18 -0.43,3.11zm116.73 -98.41c7.23,1.93 14.6,4.2 21.47,6.52 6.85,2.33 12.86,5.14 17.59,8.22 8.56,5.6 14.86,13.69 18.46,24.22 3.68,10.73 5.57,25.61 5.57,44.86 0,20.8 -0.22,41.75 -0.42,62.55 -0.21,20.95 0,41.76 0,62.56 0,19.25 -1.95,33.18 -5.58,41.75 -3.66,8.66 -9.87,13.23 -18.46,14.12 -4.71,0.5 -10.81,-0.02 -17.59,-1.39 -6.94,-1.41 -14.14,-3.31 -21.47,-5.43 -7.67,-2.22 -14.59,-4.36 -21.45,-6.84 -6.86,-2.48 -12.88,-5.44 -17.6,-8.53 -9.01,-5.9 -15.21,-13.8 -18.89,-24.53 -3.6,-10.52 -5.15,-25.3 -5.15,-44.39 0,-20.64 -0.21,-41.45 0,-62.08 0.22,-20.65 0.44,-41.45 0.44,-62.09 0,-19.25 1.49,-32.95 5.15,-41.6 3.62,-8.58 9.87,-13.22 18.88,-14.13 4.71,-0.48 10.69,-0.08 17.59,1.25 6.82,1.31 13.69,2.87 21.46,4.96zm144.21 -23.13c0,63.49 0.21,126.98 0,190.61 -0.21,63.49 -0.44,126.97 -0.44,190.45 0,3.57 1.28,5.95 3.87,6.68 14.98,4.24 30.07,8.52 45.5,13.04 2.58,0.75 3.43,-0.93 3.43,-4.5 0,-22.51 0,-44.86 0,-67.21 0,-22.35 0,-44.86 0,-67.21 0,-3.73 1.26,-5.07 3.86,-4.35 14.56,4.08 30.44,7.29 44.63,12.42 11.29,4.09 16.49,18.37 20.6,39.73 6.61,34.36 15.18,68.61 22.75,102.92 0.57,2.62 1.69,6.21 3.43,10.71 1.68,4.35 3.03,6.65 4.72,7.14 16.76,4.79 33.47,9.64 50.22,14.43 1.69,0.48 2.15,-0.31 2.15,-2.32 0,-0.63 -0.41,-2.18 -1.72,-5.13 -1.25,-2.79 -2.38,-5.76 -3,-8.85 -6.66,-33.23 -13.83,-66.28 -20.18,-99.18 -1.8,-9.31 -3.67,-18.49 -6,-27.32 -2.39,-9.02 -6.43,-19.72 -12.02,-32.28 -0.41,-0.94 -0.43,-1.71 -0.43,-2.33 0,-1.24 0.05,-2.16 0.43,-2.65 0.48,-0.6 0.85,-1.08 0.85,-1.39 6.45,-3.41 11.42,-7.66 15.03,-12.73 3.67,-5.16 8.34,-10.75 11.15,-17.23 5.77,-13.25 7.73,-36.32 7.73,-68.6 0,-4.35 0.09,-8.55 0,-12.73 -0.77,-35.39 -6.42,-63.03 -17.59,-83.35 -6.4,-11.65 -12.89,-20.34 -19.32,-26.08 -6.44,-5.74 -13.28,-9.52 -20.17,-11.33 -45.46,-12 -90.53,-23.96 -135.62,-35.86 -2.54,-0.66 -3.86,0.77 -3.86,4.5zm128.32 100.12c5.73,1.73 9.81,10.26 13.73,23.28 1.21,4.05 2.36,8.23 2.58,12.73 0.2,4.19 0.43,9 0.43,14.12 0,10.25 -0.64,19.58 -2.58,27.48 -1.91,7.78 -4.73,13.51 -8.15,17.08 -3.86,4.02 -7.73,5.42 -11.16,4.49 -22.31,-6.05 -44.16,-12.17 -66.09,-18.16 -2.52,-0.68 -4.3,-2.79 -4.3,-6.67 0,-29.65 0,-59.45 0,-89.25 0,-3.57 1.26,-5.06 3.87,-4.35 23.55,6.42 48.12,12.12 71.67,19.25zm210.73 62.09c0,-3.73 1.27,-5.24 3.43,-4.66 19.72,5.31 39.45,10.61 59.66,15.99 2.52,0.67 3.86,-1.09 3.86,-4.66 0,-20.49 0,-41.13 0,-61.62 0,-3.73 -1.33,-5.85 -3.86,-6.52 -60.12,-15.78 -119.81,-31.58 -179.4,-47.34 -2.63,-0.7 -3.44,0.93 -3.44,4.65 0,20.19 0,40.67 0,60.85 0,3.57 0.82,5.81 3.44,6.52 19.69,5.34 39.44,10.61 59.66,15.99 2.52,0.67 3.43,2.79 3.43,6.52 0,52.46 -0.22,105.08 -0.43,157.55 -0.21,52.45 0,105.08 0,157.54 0,3.57 1.36,5.97 3.87,6.68 15.07,4.25 29.96,8.78 45.48,13.19 2.51,0.71 3.87,-0.93 3.87,-4.5 0,-52.77 -0.21,-105.56 0,-158.17 0.21,-52.62 0.43,-105.39 0.43,-158.01z"/>
  <polygon class="fil2" points="4961.58,245.13 8206.84,845.29 8206.84,3676.7 4961.58,4563.94 "/>
  <path class="fil3" d="M5216.6 453.98l0 3870.59 1265.15 -345.88 0 -3290.74 -1265.15 -233.97zm1623.02 2811.27l1112.2 311.53 0 -2616.97 -1112.2 217.08 0 2088.36z"/>
  <g id="_1842020352592">
   <path class="fil4" d="M5565.43 2879.84l-208.51 0c-23.37,0 -42.48,19.12 -42.48,42.49l0 0.01c0,23.37 19.11,42.49 42.48,42.49l208.51 0 0 -84.99z"/>
   <path class="fil4" d="M5565.43 1915.26l-208.51 0c-23.37,0 -42.48,19.12 -42.48,42.49l0 0.01c0,23.37 19.11,42.49 42.48,42.49l208.51 0 0 -84.99z"/>
  </g>
  <g id="_1842020347840">
   <rect class="fil4" x="5565.42" y="814.32" width="136.9" height="3083.44" rx="68.46" ry="41.51"/>
   <rect class="fil4" x="6139.06" y="937.91" width="136.9" height="2836.25" rx="68.46" ry="38.19"/>
   <g>
    <path class="fil4" d="M6139.07 2879.84l-208.51 0c-23.37,0 -42.48,19.12 -42.48,42.49l0 0.01c0,23.37 19.11,42.49 42.48,42.49l208.51 0 0 -84.99z"/>
    <path class="fil4" d="M6139.07 1915.26l-208.51 0c-23.37,0 -42.48,19.12 -42.48,42.49l0 0.01c0,23.37 19.11,42.49 42.48,42.49l208.51 0 0 -84.99z"/>
   </g>
   <rect class="fil4" x="7476.7" y="1311.03" width="82.01" height="1847.07" rx="41.01" ry="24.87"/>
   <g>
    <path class="fil4" d="M7558.71 2548.34l124.9 0c14,0 25.45,11.45 25.45,25.45l0 0.01c0,14 -11.45,25.45 -25.45,25.45l-124.9 0 0 -50.91z"/>
    <path class="fil4" d="M7558.71 1970.53l124.9 0c14,0 25.45,11.45 25.45,25.45l0 0.01c0,14 -11.45,25.44 -25.45,25.44l-124.9 0 0 -50.9z"/>
   </g>
   <rect class="fil4" x="7133.07" y="1370.9" width="82.01" height="1699" rx="41.01" ry="22.87"/>
   <g>
    <path class="fil4" d="M7215.08 2534.17l124.9 0c14,0 25.45,11.45 25.45,25.45l0 0.01c0,14 -11.45,25.45 -25.45,25.45l-124.9 0 0 -50.91z"/>
    <path class="fil4" d="M7215.08 1956.36l124.9 0c14,0 25.45,11.45 25.45,25.45l0 0.01c0,14 -11.45,25.45 -25.45,25.45l-124.9 0 0 -50.91z"/>
   </g>
  </g>
 </g>
</svg>
